<svg xmlns="http://www.w3.org/2000/svg" viewBox="0 0 1200 630" width="1200" height="630">
  <!-- Dark background -->
  <rect width="1200" height="630" fill="#030712"/>
  <!-- Grid lines (subtle) -->
  <g stroke="#0f172a" stroke-width="1">
    <line x1="0" y1="30" x2="1200" y2="30"/>
    <line x1="0" y1="60" x2="1200" y2="60"/>
    <line x1="0" y1="90" x2="1200" y2="90"/>
    <line x1="0" y1="120" x2="1200" y2="120"/>
    <line x1="0" y1="150" x2="1200" y2="150"/>
    <line x1="0" y1="180" x2="1200" y2="180"/>
    <line x1="0" y1="210" x2="1200" y2="210"/>
    <line x1="0" y1="240" x2="1200" y2="240"/>
    <line x1="0" y1="270" x2="1200" y2="270"/>
    <line x1="0" y1="300" x2="1200" y2="300"/>
    <line x1="0" y1="330" x2="1200" y2="330"/>
    <line x1="0" y1="360" x2="1200" y2="360"/>
    <line x1="0" y1="390" x2="1200" y2="390"/>
    <line x1="0" y1="420" x2="1200" y2="420"/>
    <line x1="0" y1="450" x2="1200" y2="450"/>
    <line x1="0" y1="480" x2="1200" y2="480"/>
    <line x1="0" y1="510" x2="1200" y2="510"/>
    <line x1="0" y1="540" x2="1200" y2="540"/>
    <line x1="0" y1="570" x2="1200" y2="570"/>
    <line x1="0" y1="600" x2="1200" y2="600"/>
    <line x1="30"  y1="0" x2="30"  y2="630"/>
    <line x1="60"  y1="0" x2="60"  y2="630"/>
    <line x1="90"  y1="0" x2="90"  y2="630"/>
    <line x1="120" y1="0" x2="120" y2="630"/>
    <line x1="150" y1="0" x2="150" y2="630"/>
    <line x1="180" y1="0" x2="180" y2="630"/>
    <line x1="210" y1="0" x2="210" y2="630"/>
    <line x1="240" y1="0" x2="240" y2="630"/>
    <line x1="270" y1="0" x2="270" y2="630"/>
    <line x1="300" y1="0" x2="300" y2="630"/>
    <line x1="330" y1="0" x2="330" y2="630"/>
    <line x1="360" y1="0" x2="360" y2="630"/>
    <line x1="390" y1="0" x2="390" y2="630"/>
    <line x1="420" y1="0" x2="420" y2="630"/>
    <line x1="450" y1="0" x2="450" y2="630"/>
    <line x1="480" y1="0" x2="480" y2="630"/>
    <line x1="510" y1="0" x2="510" y2="630"/>
    <line x1="540" y1="0" x2="540" y2="630"/>
    <line x1="570" y1="0" x2="570" y2="630"/>
    <line x1="600" y1="0" x2="600" y2="630"/>
    <line x1="630" y1="0" x2="630" y2="630"/>
    <line x1="660" y1="0" x2="660" y2="630"/>
    <line x1="690" y1="0" x2="690" y2="630"/>
    <line x1="720" y1="0" x2="720" y2="630"/>
    <line x1="750" y1="0" x2="750" y2="630"/>
    <line x1="780" y1="0" x2="780" y2="630"/>
    <line x1="810" y1="0" x2="810" y2="630"/>
    <line x1="840" y1="0" x2="840" y2="630"/>
    <line x1="870" y1="0" x2="870" y2="630"/>
    <line x1="900" y1="0" x2="900" y2="630"/>
    <line x1="930" y1="0" x2="930" y2="630"/>
    <line x1="960" y1="0" x2="960" y2="630"/>
    <line x1="990" y1="0" x2="990" y2="630"/>
    <line x1="1020" y1="0" x2="1020" y2="630"/>
    <line x1="1050" y1="0" x2="1050" y2="630"/>
    <line x1="1080" y1="0" x2="1080" y2="630"/>
    <line x1="1110" y1="0" x2="1110" y2="630"/>
    <line x1="1140" y1="0" x2="1140" y2="630"/>
    <line x1="1170" y1="0" x2="1170" y2="630"/>
  </g>
  <!-- Snake body -->
  <rect x="180" y="300" width="26" height="26" rx="4" fill="#15803d"/>
  <rect x="210" y="300" width="26" height="26" rx="4" fill="#16a34a"/>
  <rect x="240" y="300" width="26" height="26" rx="4" fill="#16a34a"/>
  <rect x="270" y="300" width="26" height="26" rx="4" fill="#22c55e"/>
  <rect x="300" y="300" width="26" height="26" rx="4" fill="#22c55e"/>
  <rect x="330" y="300" width="26" height="26" rx="4" fill="#22c55e"/>
  <rect x="330" y="270" width="26" height="26" rx="4" fill="#22c55e"/>
  <rect x="330" y="240" width="26" height="26" rx="4" fill="#22c55e"/>
  <!-- Snake head -->
  <rect x="360" y="240" width="26" height="26" rx="4" fill="#4ade80"/>
  <!-- Eye -->
  <circle cx="381" cy="248" r="3" fill="#030712"/>
  <!-- Food -->
  <rect x="540" y="240" width="26" height="26" rx="4" fill="#ef4444"/>
  <rect x="543" y="233" width="4" height="8" rx="2" fill="#15803d"/>
  <!-- Title text -->
  <text x="600" y="400" font-family="ui-monospace, monospace" font-size="96" font-weight="700" fill="#f8fafc" text-anchor="middle" letter-spacing="-2">Snake Game</text>
  <!-- Subtitle -->
  <text x="600" y="460" font-family="ui-monospace, monospace" font-size="28" fill="#64748b" text-anchor="middle">Built with React &amp; Next.js</text>
</svg>
